<?xml version="1.0" standalone="no"?><!DOCTYPE svg PUBLIC "-//W3C//DTD SVG 1.1//EN" "http://www.w3.org/Graphics/SVG/1.1/DTD/svg11.dtd"><svg t="1744858931686" class="icon" viewBox="0 0 1024 1024" version="1.1" xmlns="http://www.w3.org/2000/svg" p-id="9538" xmlns:xlink="http://www.w3.org/1999/xlink" width="200" height="200"><path d="M914.7392 421.1712c0-227.0208-181.6576-408.6784-408.6784-408.6784S97.3824 194.1504 97.3824 421.1712c0 208.8448 158.9248 381.44 363.264 404.1216v95.3856H301.7216c-27.2384 0-45.4144 18.1248-45.4144 45.4144 0 27.1872 18.176 45.4144 45.4144 45.4144h408.6784c27.2384 0 45.4144-18.176 45.4144-45.4144 0-27.2896-18.1248-45.4144-45.4144-45.4144h-158.9248v-95.3856c204.3392-22.6816 363.264-195.2768 363.264-404.1216z m-726.528 0a315.904 315.904 0 0 1 317.8496-317.8496 315.904 315.904 0 0 1 317.9008 317.8496 315.9552 315.9552 0 0 1-317.9008 317.9008 315.904 315.904 0 0 1-317.8496-317.9008z" fill="#00A0E9" p-id="9539"></path><path d="M632.6272 296.448c-56.1152 16.896-66.304 64.768-62.72 95.1296-39.9872-49.6128-38.3488-106.7008-38.3488-188.928-128.1536 50.9952-98.4064 198.1952-102.1952 242.944-32.3072-27.904-38.3488-94.5152-38.3488-94.5152-34.048 18.4832-51.0976 67.9424-51.0976 107.9808 0 96.9216 74.3424 175.5136 166.144 175.5136 91.8016 0 166.144-78.592 166.144-175.5136 0-57.5488-40.0384-84.1728-39.5776-162.6112" fill="#00A0E9" p-id="9540"></path></svg>