<?xml version="1.0" standalone="no"?><!DOCTYPE svg PUBLIC "-//W3C//DTD SVG 1.1//EN" "http://www.w3.org/Graphics/SVG/1.1/DTD/svg11.dtd"><svg t="1744858888096" class="icon" viewBox="0 0 1024 1024" version="1.1" xmlns="http://www.w3.org/2000/svg" p-id="7544" xmlns:xlink="http://www.w3.org/1999/xlink" width="200" height="200"><path d="M443.41 431q9.72 16.69 15 23.93c4.24 8.31 10.84 15 15.06 23.29l1-1c7.43-5.09 13.26-25.32 1.41-38.61-6.12-9.31-26.07-9.05-32.47-7.61z" fill="#040000" p-id="7545"></path><path d="M883.52 284L547.17 89.85a39.07 39.07 0 0 0-39 0L171.86 284a39.07 39.07 0 0 0-19.49 33.75v388.42a39.07 39.07 0 0 0 19.48 33.75l336.36 194.19a39.08 39.08 0 0 0 39 0l336.3-194.19A39.07 39.07 0 0 0 903 706.17V317.79A39.07 39.07 0 0 0 883.52 284z m-44.8 407.51l-90 52a16.24 16.24 0 0 0-1.56-1.82q-13-13.94-25.62-28.3h56.31A16.38 16.38 0 0 0 792.07 689c-4-7.09-13.31-19.2-47.63-42.56a561.43 561.43 0 0 0-64-37.93c-15.65-42.34-45.95-97.24-90.16-163.35-47.62-71.22-102.89-101.16-164.67-89.33q-10.11-10-20.94-19.28C389.1 323.18 350.92 311.82 329 314c-9.94 1-17.4 4.63-22.18 10.78-11.08 14.28-7.38 34.82 43.74 101.75 9.72 28.45 11.8 43.31 11.8 50.79 0 15.81 8.17 33.95 25.57 56.65l-16.37 56c-14.6 50 11.93 114.73 36.63 137.28 13.18 12 24.28 10.25 29.76 8.1 11-4.32 19.87-15.08 25.6-45.78q4.72 11.64 9.31 23.32c17.68 44.88 35 69.71 54.39 78.13a16.39 16.39 0 0 0 13-30c-4.81-2.09-18.07-12.13-37-60.1-15.94-40.48-27.55-67.55-35.49-82.79a16.36 16.36 0 0 0-30.84 6.87c-2 46.57-6.67 66.7-9.82 75.2-13.55-15.58-34.85-64.44-24.16-101q15.93-54.65 18.74-64.07a16.34 16.34 0 0 0-3-15c-21.31-26.17-23.62-38.66-23.62-42.82 0-15.07-4.73-36-14.47-64a16 16 0 0 0-2.44-4.55c-27.53-35.86-37.65-53.82-41.35-62.34 13.11 0.62 38 7.69 46.55 15a338 338 0 0 1 25.08 23.69 16.32 16.32 0 0 0 16 4.57c51.25-13.26 96.64 10.82 138.66 73.66 44.91 67.18 74.75 121.76 88.7 162.26a16.38 16.38 0 0 0 8.38 9.43A513.79 513.79 0 0 1 726 673.49q5.18 3.52 10.26 7.17h-50.54a16.38 16.38 0 0 0-12.45 27q22.64 26.82 46.47 52.6L527.69 871.12l-311-179.57V332.41l311-179.57 311 179.57z" fill="#040000" p-id="7546"></path></svg>