<?xml version="1.0" standalone="no"?><!DOCTYPE svg PUBLIC "-//W3C//DTD SVG 1.1//EN" "http://www.w3.org/Graphics/SVG/1.1/DTD/svg11.dtd"><svg t="1744858841293" class="icon" viewBox="0 0 1440 1024" version="1.1" xmlns="http://www.w3.org/2000/svg" p-id="3503" xmlns:xlink="http://www.w3.org/1999/xlink" width="281.25" height="200"><path d="M249.237 671.474a906.308 906.308 0 0 0 54.643 61.282c-58.356 17.56-96.61 50.165-120.477 78.955-37.753 45.568-57.738 105.748-53.141 157.398H29.769c20.154-43.734 100.6-170.08 219.468-297.635m1164.074 325.041h-122.188C1010.817 850.246 764.725 747.104 503.296 724.57c0.557-36.38 7.033-77.565 19.49-123.465l-24.081-6.476c-12.789 47.166-19.49 89.853-20.266 128.056a1227.979 1227.979 0 0 0-82.325-2.712c-23.423 0-44.792 2.16-64.276 5.925-25.414-25.358-47.06-49.608-65.44-72.58C386.976 527.748 585.57 414.14 758.413 371.403 807.08 533.172 911.55 644.012 1038.33 718.589a537.87 537.87 0 0 0 27.406-16.716l221.179 238.114 9.688-0.833c60.4-5.198 94.726 27.575 103.813 37.759 6.695 7.421 10.679 14.235 12.895 19.602" fill="#D1A41A" p-id="3504"></path><path d="M1305.409 200.051c4.484 219.738-107.627 394.634-264.586 484.324C774.414 551.672 724.255 215.39 769.654 35.013c12.62 68.985 35.598 112.224 85.206 133.43 108.178-30.951 257.052-33.393 366.727-3.157 45.675-33.218 63.392-83.985 73.081-128.332 12.069 51.594 10.684 163.097 10.74 163.097" fill="#FFDC76" p-id="3505"></path><path d="M946.469 229.421c9.21 0 15.669 3.742 20.339 11.742 10.943 18.826 9.148 55.96 0.073 94.81h-73.683v16.142h69.536c-7.46 26.506-17.942 52.73-29.74 73.509l-3.815 6.718 92.193 58.03-51.903 34.203 8.884 13.486 58.014-38.248 62.627 40.87 8.603-13.66-58.07-35.925s86.82-56.393 91.136-59.15l-0.068-0.101 0.102-0.017c-19.136-28.21-25.2-52.297-17.234-79.715h6.515l70.015-0.078 0.163-16.064h-70.549c12.997-30.585 31.193-58.12 96.144-58.12V261.71c-59.927 0-95.795 23.794-112.972 74.262h-129.3c9.041-40.346 10.611-80.007-2.735-102.934-7.51-12.918-19.371-19.766-34.275-19.766-53.412 0-74.5 54.582-75.366 56.905l15.113 5.672c0.754-1.975 18.167-46.429 60.253-46.429z m89.706 251.195l-68.191-42.935 133.266 0.034-65.075 42.901z m70.865-128.5c-5.734 18.274-3.432 45.804 10.679 69.429h-164.29c9.992-20.024 19.258-44.432 26.033-69.43h127.578z" p-id="3506"></path><path d="M886.221 275.85h-0.005l-0.006 0.011 0.011-0.011" p-id="3507"></path><path d="M1419 959.87c-27.361-30.607-80.958-45.095-125.716-44.02-28.531-33.96-179.915-193.778-210.477-226.006a577.66 577.66 0 0 0 160.143-170.39h83.535v-17.93h-72.963a590.285 590.285 0 0 0 13.391-25.122h59.572v-17.937h-50.896c37.81-81.656 58.734-175.402 56.703-278.005l0.213 0.118c-0.107-28.07-8.844-146.713-24.913-179.38-43.57 16.559-122.852 70.2-140.795 125.058-85.993-12.84-182.936-11.32-267.854 3.376C884.753 70.61 813.545 25.442 759.825 0c-22.658 38.237-32.695 126.892-30.146 189.783l-0.298 0.197c2.143 56.82 9.857 109 22.274 156.942-185.782 46.035-388.045 167.74-501.186 285.359-52.955-71.472-73.964-130.127-80.204-174.576-7.882-56.134 5.52-107.632 38.75-148.924 52.026-64.63 125.946-69.182 201.952-56.399-1.485 12.001 0.09 23.473 4.9 30.574 20.098 29.685 128.13 40.116 192.614 11.348-47.588-66.683-143.979-99.243-170.687-86.196-8.845 4.316-15.523 12.255-20.098 21.51-26.27-4.698-52.359-8.198-71.432-8.057-67.033 0.495-118.278 23.918-156.655 71.601-37.658 46.783-52.877 104.881-44.015 168.01 8.394 59.79 37.995 123.386 87.614 189.338a1702.603 1702.603 0 0 0-23.879 26.146C88.396 811.97 0 957.074 0 981.116v12.457h159.536l-2.796-14.77c-9.008-47.616 8.985-107.131 45.838-151.614 23.135-27.923 61.45-59.797 121.62-74.504 53.5 52.213 121.658 107.666 197.53 161.162h118.553V901.39c0-14.055-6.965-26.36-19.624-34.642-18.73-12.243-47.639-13.93-74.195-4.872-25.32-28.2-39.514-65.868-42.58-112.651 257.299 22.787 503.402 126.689 781.097 271.754h152.79l2.003-10.015c2.853-14.258-4.917-33.36-20.772-51.093zM769.649 34.603c12.642 68.957 35.57 112.201 85.228 133.418 43.964-12.58 94.686-20.367 146.741-23.242l43.177 94.697 27.682-95.519c52.6 1.705 104.144 8.519 149.076 20.914 45.703-33.23 63.426-83.985 73.104-128.332 12.09 51.605 10.695 163.074 10.73 163.097 0.849 41.624-2.499 81.627-9.532 119.757l-49.315 20.959 43.458 6.582a548.875 548.875 0 0 1-11.945 42.935l-42.051 12.21 33.505 12.062a535.71 535.71 0 0 1-18.972 44.325h-69.345v17.937h60.224a529.425 529.425 0 0 1-14.29 25.122h-45.934v17.93h34.652c-45.59 69.042-105.961 125.03-175.036 164.505-79.833-39.779-140.226-97.843-184.472-164.504h26.472v-17.931H844.93a551.064 551.064 0 0 1-14.364-25.122h52.241v-17.937H821.31a606.85 606.85 0 0 1-27.665-65.682l31.333-8.772-39.508-15.799a673.899 673.899 0 0 1-10.758-38.777l60.804-4.146-69.53-36.892c-17.043-93.966-13.622-185.164 3.663-253.795zM183.397 811.295c-37.736 45.545-57.738 105.708-53.158 157.364H29.741c20.193-43.7 100.628-170.029 219.48-297.635 16.378 20.244 34.618 40.69 54.654 61.305-58.351 17.543-96.61 50.159-120.478 78.966z m1107.693 184.77C1010.812 849.82 764.703 746.687 503.28 724.16c0.567-36.38 7.049-77.56 19.472-123.454l-24.041-6.515c-12.778 47.177-19.507 89.893-20.267 128.073a1243.519 1243.519 0 0 0-82.314-2.74c-23.456 0-44.82 2.178-64.303 5.964-25.41-25.397-47.06-49.602-65.452-72.574 32.717-34.085 71.213-67.264 113.338-98.4l58.334 40.28-19.045-68.024a1182.157 1182.157 0 0 1 54.547-34.63l86.45 43.93-40.595-69.986a1195.914 1195.914 0 0 1 35.75-18.544l120.77 81.008-39.66-117.524c41.225-16.614 82.342-30.202 122.11-40.037a597.971 597.971 0 0 0 33.983 87.48h-54.852v17.936h63.893c4.496 8.546 9.143 16.935 13.999 25.122h-77.892v17.93h88.998c54.581 84.723 128.332 149.595 211.805 198.696a562.598 562.598 0 0 0 27.395-16.778l21.875 23.552-36.763 56.557 62.706-28.627 36.302 39.08-61.367 46.761 84.502-21.852 113.974 122.7 9.649-0.828c60.416-5.17 94.754 27.592 103.846 37.759 6.667 7.455 10.69 14.257 12.879 19.591H1291.09z" p-id="3508"></path></svg>