<?xml version="1.0" standalone="no"?><!DOCTYPE svg PUBLIC "-//W3C//DTD SVG 1.1//EN" "http://www.w3.org/Graphics/SVG/1.1/DTD/svg11.dtd"><svg t="1744858981888" class="icon" viewBox="0 0 1063 1024" version="1.1" xmlns="http://www.w3.org/2000/svg" p-id="12659" xmlns:xlink="http://www.w3.org/1999/xlink" width="207.6171875" height="200"><path d="M162.276 737.735v38.142l88.77 63.11c8.321 5.547 17.337 8.322 27.045 8.322s18.726-2.774 27.047-8.322l88.768-63.11v-38.142h22.887v21.5l27.047-19.42c11.79-8.322 19.418-22.885 19.418-37.448v-98.478l-22.886-4.16v22.884h-22.885v80.447l-138.702 99.17-138.7-99.169v-80.448H115.812v-22.885h22.885V483.915H115.812v-22.887h22.885V333.423H115.812v-22.884h22.885V206.513h92.237c-25.66 0-46.465-20.805-46.465-46.464h-46.464c-25.66 0-46.465 20.804-46.465 46.464v496.548c0 14.564 6.934 29.127 19.418 37.449l27.046 19.419v-21.5h24.273z m161.587-531.223h92.235v104.026h22.886v22.885H416.1v99.171l46.464 8.322V206.512c0-25.66-20.804-46.464-46.464-46.464h-46.464c0.693 25.659-20.112 46.464-45.772 46.464z" fill="#2C2C2C" p-id="12660"></path><path d="M437.598 599.035l-21.5-3.467v3.467z m-205.97-392.523h92.234c25.66 0 46.465-20.805 46.465-46.464V67.81c0-25.66-20.804-46.464-46.464-46.464h-92.236c-25.66 0-46.465 20.804-46.465 46.464v92.236c0 25.66 20.806 46.465 46.464 46.465z m0-138.7h92.234v92.235h-92.235V67.812z" fill="#2C2C2C" p-id="12661"></path><path d="M855.78 784.2v161.586H601.263V784.199h-22.886v161.587H416.1v-208.05h-22.885v208.05H162.276v-208.05h-23.58v208.05H-0.002v46.464H1063.83v-46.464H878.665V784.199zM416.099 460.333H115.812v23.58H416.1v111.653l21.499 3.467H115.812v23.58h323.866v-22.886l22.886 4.161 69.35 13.177v-47.158l-69.35-13.177v-68.656l69.35 13.176v-47.158l-69.35-12.483-46.465-9.016z m601.267 134.54v67.963L925.13 643.42v47.157l138.701 29.822V557.424l-138.7-29.819v47.158z m-138.7 85.3V517.2z" fill="#2C2C2C" p-id="12662"></path><path d="M778.8 761.314H677.55l11.788 22.885h78.366z" fill="#2C2C2C" p-id="12663"></path><path d="M531.913 569.907V738.43c0 25.66 20.806 46.464 46.465 46.464H663.68l-22.887-46.464h-62.415V252.284h300.287v485.45H816.25L793.364 784.2h85.301c25.66 0 46.464-20.804 46.464-46.464V252.284c0-25.66-20.804-46.465-46.464-46.465H578.378c-25.66 0-46.464 20.805-46.464 46.464v317.624z" fill="#2C2C2C" p-id="12664"></path><path d="M672.695 458.254H784.35V347.293H672.695v110.96z m18.724-92.236h73.512v73.51h-73.512v-73.51z m-18.724 277.4H784.35V531.766H672.695V643.42z m18.724-92.235h73.512v73.511h-73.512v-73.511z m67.27 302.368l34.675-69.352 22.885-46.464H640.1L663.68 784.2l34.674 69.35h60.335z m-81.14-92.237h101.252L767.704 784.2l-22.885 46.464h-32.594L689.338 784.2l-11.788-22.885zM439.679 333.423v-22.884H115.812v22.885H416.1z" fill="#2C2C2C" p-id="12665"></path></svg>