<svg width="36.74" height="39.74" xmlns="http://www.w3.org/2000/svg" data-name="图层 1">

 <g>
  <title>Layer 1</title>
  <g id="svg_1" isolation="isolate" class="cls-1"/>
  <polygon id="svg_8" fill-rule="evenodd" fill="#4384f5" points="10.44 15.85 27.6 5.96 32.24 8.64 15.22 18.67 15.22 20.49 17.3 21.7 34.23 11.91 34.23 21.18 34.23 29.85 24.94 35.34 17.31 39.74 10.44 35.78 10.44 30.01 17.31 33.95 28.96 26.74 28.96 20.64 17.3 27.39 10.44 23.42 10.44 15.85" class="cls-5"/>
  <polygon id="svg_9" fill="#12ede8" points="8.65 28.91 4.9 26.78 4.9 12.76 0.03 9.94 0.03 29.83 8.65 34.76 8.65 28.91" class="cls-6"/>
  <polygon id="svg_10" fill-rule="evenodd" fill="#4384f5" points="17.26 0 22.02 2.79 4.86 12.72 0 9.88 8.63 4.97 17.26 0.06 17.26 0" class="cls-5"/>
 </g>
</svg>