<?xml version="1.0" standalone="no"?><!DOCTYPE svg PUBLIC "-//W3C//DTD SVG 1.1//EN" "http://www.w3.org/Graphics/SVG/1.1/DTD/svg11.dtd"><svg t="1744859006839" class="icon" viewBox="0 0 1024 1024" version="1.1" xmlns="http://www.w3.org/2000/svg" p-id="12807" xmlns:xlink="http://www.w3.org/1999/xlink" width="200" height="200"><path d="M101.035 275.115l176.81-176.47 176.47 176.47z m11.605 35.84v522.581h330.07V310.955H112.64z m230.741 194.901H212.31V374.784h131.072v131.072z m-243.37 340.65h355.328v61.44H100.01zM475.136 583.34l16.384 15.018 58.368-64.17 20.139 75.434-30.038 32.768 16.384 15.019 405.163-444.075-81.237-74.069-405.163 444.075z m220.843-110.934l-91.136 100.011-20.139-75.435 91.136-100.01 20.139 75.434zM824.32 331.776l-91.136 100.01-20.139-75.434 91.136-100.01 20.139 75.434z m95.915-105.472l-61.782 67.925-29.013-65.536 61.781-67.925 29.014 65.536z" p-id="12808"></path></svg>